/* XPM */
static char *xcircuit[]={
"64 64 332 2",
"c. c None",
".a c None",
".# c #000000",
"b. c #000080",
"#E c #0000c0",
"bP c #0058c0",
"am c #010101",
".E c #191919",
"#6 c #1c1c1c",
"#7 c #1e1e1e",
"#U c #242424",
"#I c #292929",
"#N c #2b2b2b",
"bh c #312f2b",
"a8 c #393733",
".0 c #393939",
".3 c #3a3a3a",
"ax c #3c3c3c",
"#C c #3d3d3d",
"#R c #3f3f3f",
"dj c #404000",
"#Y c #414141",
"aL c #454545",
"#8 c #474747",
"cc c #49453f",
"aX c #494743",
".z c #4c4742",
"al c #4d4d4d",
"#P c #4e4e4e",
"b2 c #4f4b44",
".A c #504b46",
"cF c #504c47",
".y c #514c45",
"cD c #524f48",
"#4 c #525252",
"cz c #534f49",
"cl c #544f49",
"cr c #54514a",
"#u c #545454",
"cv c #55504b",
".C c #56534f",
".x c #57514a",
"aK c #575350",
"#j c #575757",
".B c #58554f",
"an c #585858",
"#w c #58a8ff",
".Z c #595858",
".1 c #595959",
"aw c #5a5856",
".w c #5c564e",
"#9 c #5c5c5c",
"aW c #615e58",
"aa c #616161",
".v c #625c53",
"#g c #636363",
"b0 c #64635e",
".u c #655f56",
"bY c #65635e",
"ay c #656565",
"bO c #66645f",
".t c #696257",
"#K c #696969",
"ak c #6a6a6a",
"a. c #6b6b6b",
".D c #6c6c6c",
".s c #6d655a",
".r c #6f675b",
"a7 c #706962",
"aj c #707070",
".q c #71695c",
"aJ c #726e69",
".p c #756c5f",
".2 c #757575",
".o c #786f61",
"#F c #787878",
".n c #7a7062",
"a# c #7a7a7a",
".m c #7d7263",
"aV c #7e7b74",
"bV c #7e7c7c",
"bg c #7f776c",
"av c #7f7c77",
"bU c #7f7e7e",
"ai c #7f7f7f",
".l c #807465",
"bZ c #807e7e",
"#q c #808080",
".k c #817767",
"b1 c #818080",
"az c #827767",
"ao c #837868",
".j c #847867",
"aM c #847b6c",
"au c #84817e",
"ab c #857969",
".i c #857a68",
"#5 c #857a69",
"b3 c #868685",
"#M c #868686",
"#1 c #877b6a",
"bp c #877f73",
"#H c #878787",
"b5 c #878886",
".h c #887b6a",
"#Z c #887b6b",
"#V c #897d6b",
"#T c #898989",
".g c #8a7d6b",
"bT c #8a8888",
"#O c #8b7e6b",
"aI c #8b8883",
"#r c #8b8b8b",
".f c #8c7e6b",
"#D c #8d7f6c",
".Y c #8d8b8b",
".e c #8e806c",
"#v c #8e806d",
"#B c #8e8e8e",
".4 c #8f816e",
"bx c #8f8677",
"a6 c #8f8a83",
"#X c #8f8f8f",
".d c #90826d",
".c c #91836e",
".b c #91836f",
"ah c #919191",
"#t c #929292",
"#f c #939393",
"bD c #958a79",
".X c #959494",
"bq c #969292",
"#i c #969696",
"bH c #978b79",
"bi c #999494",
"a9 c #9a9897",
"bK c #9b8e7a",
"di c #9c7f55",
"aH c #9c9894",
"by c #9c9898",
"bN c #9d8e79",
".W c #9d9a9a",
"at c #9d9b98",
"bf c #9e978e",
"aU c #9e9993",
"#e c #a0a0a0",
".T c #a19d9d",
".V c #a1a0a0",
"#h c #a1a1a1",
".U c #a3a1a1",
"cm c #a4a2a0",
"cI c #a5a19e",
"bE c #a6a1a1",
"cG c #a6a39f",
"#y c #a6a6a6",
"cs c #a7a5a3",
"bo c #a8a096",
"cE c #a8a4a1",
".S c #a8a4a4",
"cA c #a9a5a1",
"aG c #aaa7a3",
".R c #aba7a7",
"ag c #ababab",
"aT c #aca7a1",
".Q c #aca8a8",
"as c #aca9a5",
"#p c #acacac",
"bw c #ada69c",
"bI c #ada8a8",
".P c #adaaaa",
"b6 c #ae9166",
"a5 c #aea89f",
"dh c #af8f5f",
"cy c #af9061",
"cq c #af9062",
"ck c #af9063",
"cf c #af9164",
"cb c #af9165",
"b8 c #af9166",
"dg c #af9268",
"df c #af9369",
"de c #af936b",
".O c #afabab",
"cJ c #b09060",
"cB c #b09061",
"dd c #b09670",
"bL c #b0abab",
".N c #b0acac",
"dc c #b19772",
"bC c #b1a99c",
".M c #b1acac",
"bQ c #b1adad",
"af c #b1b1b1",
"db c #b29a78",
"da c #b29b7a",
"d# c #b29c7d",
".L c #b2adad",
"#d c #b2b2b2",
".K c #b3aeae",
"#A c #b3b3b3",
"d. c #b4a085",
"c9 c #b4a287",
"c8 c #b4a38a",
".J c #b4aeae",
".I c #b4afaf",
"#0 c #b4b4b4",
"c7 c #b5a58d",
"c6 c #b5a790",
".H c #b5afaf",
"#J c #b5b0b0",
"bG c #b6ac9f",
".G c #b6b0b0",
"#k c #b6b1b1",
"aF c #b6b2ae",
"#s c #b6b6b6",
".F c #b7b1b1",
"aS c #b7b3ae",
"aN c #b7b3b3",
"ar c #b7b6b4",
"bJ c #b8ad9f",
"a4 c #b9b4ac",
"c5 c #bab3a6",
"be c #bbb5ab",
"cw c #bcb4aa",
"ae c #bcbcbc",
"#x c #bebebe",
"#c c #c0c0c0",
"aE c #c2beba",
"ad c #c3c3c3",
"aq c #c4c2c0",
"bn c #c5beb3",
"#o c #c5c5c5",
"a3 c #c6bfba",
"bd c #c6c0b7",
"bv c #c7bfb3",
"aD c #c7c5c3",
"#3 c #c7c7c7",
"#b c #c9c9c9",
"cu c #caad82",
"cp c #caad85",
"aR c #cac6c2",
"ap c #cac9c9",
"cj c #cbaf87",
"bm c #cbc4bb",
"#z c #cbcbcb",
"ce c #ccb089",
"ca c #ccb28c",
"bB c #ccc2b6",
"a2 c #ccc8c1",
"#2 c #cccccc",
"b7 c #cdb38f",
"c4 c #ceb590",
"bc c #cec8be",
"c3 c #cfb693",
"c2 c #cfb795",
"bF c #cfc6b8",
"bu c #d0c8bc",
"aC c #d0cfcd",
"c1 c #d2bb9c",
"c0 c #d2bd9f",
"bl c #d2ccc2",
"aQ c #d2ceca",
"a1 c #d3cfca",
"cZ c #d4c0a6",
"cY c #d4c2a8",
"bA c #d4cbbe",
"#a c #d4d4d4",
"cX c #d5c3ab",
"bb c #d6cfc9",
"cW c #d7c8b2",
"bt c #d7cfc6",
"cV c #d8cab4",
"aP c #d9d7d4",
"aB c #dad9d8",
"bk c #dbd5cc",
"a0 c #dbd7d2",
"ba c #dcd8d0",
"## c #dcdcdc",
"cU c #ddd3c5",
"cT c #ded5ca",
"cS c #ded7cc",
"#. c #dedede",
"cx c #dfbf90",
"#n c #dfdfdf",
"ct c #e0c093",
"#G c #e0e0e0",
"co c #e1c296",
".9 c #e1e1e1",
"ci c #e2c398",
"cd c #e2c59b",
"c# c #e3c69e",
".8 c #e3e3e3",
"cR c #e4c8a0",
".7 c #e4e4e4",
"cQ c #e5c9a3",
"b9 c #e5cba5",
"aO c #e5e3e1",
"cP c #e6cca8",
"aZ c #e6e2de",
".5 c #e6e6e6",
"cO c #e8d1b0",
"cN c #e9d2b3",
"b4 c #eadcc9",
"cK c #ebd7ba",
"#m c #ebebeb",
"#W c #ececec",
"cM c #eddac0",
"b# c #eeeae4",
"aY c #eeece9",
"bS c #efe4d5",
"cH c #f1e3cf",
"cn c #f2e5d2",
"ch c #f3e8d7",
".6 c #f3f3f3",
"cg c #f4e9da",
"#S c #f4f4f4",
"cL c #f5ebdc",
"bX c #f5ebde",
"bs c #f5f0e8",
"aA c #f5f5f5",
"bW c #f6eee2",
"bM c #f6f2ee",
"#L c #f6f6f6",
"#l c #f7efe4",
"bz c #f7f0e8",
"ac c #f8f8f8",
"br c #faf5ef",
"bj c #faf6f0",
"bR c #fcf8f4",
"Qt c #ff0000",
"cC c #ff00ff",
"#Q c #ffffff",
"QtQtQt.#.a.a.a.a.a.a.a.a.a.aQtQt.b.c.d.e.f.g.h.i.j.k.l.m.n.o.p.q.r.s.t.u.v.w.x.y.z.A.B.C.D.E.#.#.#.#.a.a.a.a.a.a.a.a.a.a.a.a.a.a",
"QtQtQtQt.#.a.a.a.a.a.a.a.aQtQt.#.b.F.F.G.G.H.H.I.I.J.J.K.L.L.M.N.O.P.Q.R.S.T.U.V.W.X.Y.Z.0.1.2.3.#.#.#.#.a.a.a.a.a.a.a.a.a.a.a.a",
"QtQtQtQtQt.#.a.a.a.a.a.aQtQt.#.#.4.F.5.6.6.5.6.5.5.6.5.5.5.5.5.5.5.7.8.9#.###a#b#c#d#e#f#g#h#i#j.#.#.#.#.#.a.a.a.a.a.a.a.a.a.a.a",
".aQtQtQtQtQt.#.a.a.a.aQtQt.#.a.#.4#k#l#l#l#l#l#l#l#l#l#l#l#l#l#l#l#l#l#l#l#l#l#m#n#a#o#p#q#r#s#t#u.#.#.#.#.#.a.a.a.a.a.a.a.a.a.a",
".a.aQtQtQtQtQt.#.a.aQtQt.#.a.a.##v#k#l#l#l#l#l#l#l#l#l#l#l#w#w#w#w#w#w#w#w#w#w#w#w#w#l#x#y#f#z#A#B#C.#.#.#.#.#.a.a.a.a.a.a.a.a.a",
".a.a.aQtQtQtQtQt.#QtQt.#.a.a.a.##D#k#l#l#l#l#l#l#l#l#l#l#l#w#w#w#w#w#w#w#w#w#w#w#w#w#E#a#c#F#G#b#A#H#I.#.#.#.#.#.a.a.a.a.a.a.a.a",
".a.a.a.aQtQtQtQtQtQt.#.a.a.a.a.#.f#J#l#l#l#l#l#w#w#w#w#w#w#w#w#w#w#w#w#w#w#w#w#w#w#w#w#w#w#K#L#G#b#A#M#N.#.#.#.#.#.a.a.a.a.a.a.a",
".a.a.a.a.aQtQtQtQtQt.#.a.a.a.a.##O#J#l#l#l#l#l#w#l#l#l#l#l#w#w#w#w#w#w#w#w#w#w#w#w#w#E#m#n#P#Q#L#G#b#A#M#R.#.#.#.#.#.a.a.a.a.a.a",
".a.a.a.a.a.aQtQtQtQtQt.#.a.a.a.#.g#J#l#l#l#l#l#w#l#l#l#l#l#l#E#E#E#E#E#E#E#E#E#E#E#E#E#S#m#P#Q#Q#L#G#b#A#T#U.#.#.#.#.#.a.a.a.a.a",
".a.a.a.a.aQtQtQtQtQtQtQt.#.a.a.##V#J#l#l#l#l#l#w#l#l#l#l#l#l#l#l#l#l#l#l#l#l#l#l#l#l#l#l#l#P#W#Q#Q#L#G#b#A#X#Y.#.#.#.#.#.a.a.a.a",
".a.a.a.aQtQt.#.aQtQtQtQtQt.#.a.##Z.I#l#l#l#l#l#w#l#l#l#l#l#l#l#l#l#l#l#l#l#l#l#l#l#l#l#l#l#P###W#Q#Q#L#G#b#0#X#N.#.#.#.#.#.a.a.a",
".a.a.aQtQt.#.a.a.aQtQtQtQtQt.#.##1.I#l#l#l#l#l#w#l#l#l#l#l#l#l#l#l#l#l#l#l#l#l#l#l#l#l#l#w#P#2###W#Q#Q#L#G#3#A#i#4.#.#.#.#.#.a.a",
".a.aQtQt.#.a.a.a.a.aQtQtQtQtQt.##5.I#l#l#l#l#l#w#l#l#l#l#l#l#l#l#l#l#l#l#l#l#l#l#l#l#l#l#w#P#6#6#6#6#7#8#9a.#Fa#a.aa.#.#.#.#.#.a",
".aQtQt.#.a.a.a.a.a.a.aQtQtQtQtQtab.I#l#l#l#l#l#w#l#l#l#l#l#l#l#l#l#l#l#l#l#l#l#l#l#l#l#l#wac#m#ladaeafagahaiajakalaman.#.#.#.#.a",
"QtQt.#.a.a.a.a.a.a.a.a.aQtQtQtQtao.I#l#l#l#l#l#w#l#l#l#l#l#l#l#l#l#l#l#l#l#l#l#l#l#l#l#l#w#l.6#l#aapaqarasatauavawaxay.#.#.#.#.a",
"Qt.#.a.a.a.a.a.a.a.a.a.a.aQtQtQtaz.I#l#l#l#l#l#w#l#l#l#l#l#l#l#l#l#l#l#l#l#l#l#l#l#l#l#l#w#laA#laBaCaDaEaFaGaHaIaJaKaL.#.#.#.#.#",
".a.a.a.a.a.a.a.a.a.a.a.a.a.a.a.#aMaN#l#l#l#l#l#w#l#l#l#l#l#l#l#l#l#l#l#l#l#l#l#l#l#l#l#l#w#l#l#laOaPaQaRaEaSaTaUaVaWaX.#.#.#.#.#",
".a.a.a.a.a.a.a.a.a.a.a.a.a.a.a.#aMaN#l#l#l#l#l#w#l#l#l#l#l#l#l#l#l#l#w#w#l#l#w#l#l#l#l#l#w#l#l#laYaZa0a1a2a3a4a5a6a7a8.#.#.#.#.#",
".a.a.a.a.a.a.a.a.a.a.a.a.a.a.a.#aMa9#l#l#l#l#l#w#l#l#l#l#l#l#l#l#l#l#w#w#l#l#wb.#l#l#l#l#w#l#l#l#lb##wbabbbcbdbebfbgbh.#.#.#.#.#",
".a.a.a.a.a.a.a.a.a.a.a.a.a.a.a.#aMbi#l#l#l#l#l#w#l#l#l#l#l#l#l#l#l#l#w#w#l#l#wb.#l#l#l#l#w#l#l#lbj#l#wb.bkblbmbnbobpbh.#.#.#.#.#",
".a.a.a.a.a.a.a.a.a.a.a.a.a.a.a.#aMbq#l#l#l#l#l#w#l#l#l#l#l#l#l#l#l#l#w#w#l#l#wb.#l#l#l#l#w#l#l#lbrbs#w#wb.btbubvbwbxbh.#.#.#.#.#",
".a.a.a.a.a.a.a.a.a.a.a.a.a.a.a.#aMby#l#l#l#l#w#w#w#l#l#l#l#l#l#l#l#l#w#w#l#l#wb.#l#l#l#w#w#w#l#l#lbz#w#w#wb.bAbBbCbDbh.#.#.#.#.#",
".a.a.a.a.a.a.a.a.a.a.a.a.a.a.a.#aMbE#l#l#l#l#w#w#w#w#w#w#w#w#w#w#w#w#w#w#l#l#w#w#w#w#w#w#w#w#w#w#w#w#w#w#w#wb.bFbGbHbh.#.#.#.#.#",
".a.a.a.a.a.a.a.a.a.a.a.a.a.a.a.#aMbI#l#l#l#l#w#w#w#l#l#l#l#l#l#l#l#l#w#w#l#l#wb.#l#l#l#w#w#w#l#l#l#l#w#w#w#w#wb.bJbKbh.#.#.#.#.#",
".a.a.a.a.a.a.a.a.a.a.a.a.a.a.a.#aMbL#lbMbMbM#l#w#l#l#l#l#l#l#l#l#l#l#w#w#l#l#wb.#l#l#l#l#l#l#l#l#l#l#w#w#w#w#w#wb.bNbh.#.#.#.#.#",
".a.a.a.a.a.a.a.a.a.a.a.a.a.a.a.#bO.L#l#l#l#l#l#w#l#l#l#l#l#l#l#l#l#l#w#w#l#l#wb.#l#l#l#l#l#l#l#l#l#l#w#w#w#w#w#wbPb.bh.#.#.#.#.#",
".a.a.a.a.a.a.a.a.a.a.a.a.a.a.a.#bObQ#l#l#l#l#l#w#l#l#l#l#l#l#l#l#l#l#w#w#l#l#wb.#l#l#l#l#l#l#l#l#l#l#w#wb.b.b.b.bP#Ebh.#.#.#.#.#",
".a.a.a.a.a.a.a.a.a.a.a.a.a.a.a.#bObQ#l#l#l#l#l#w#l#l#l#l#l#l#l#l#l#l#w#w#l#l#wb.#l#l#l#l#l#l#l#l#l#l#w#w#w#w#w#wbP#Ebh.#.#.#.#.#",
".a.a.a.a.a.a.a.a.a.a.a.a.a.a.a.#bO.N#l#l#l#l#l#w.6#l#l#l#l#l#l#l#l#l#l#l#l#l#lb.#l#l#l#lbR#l#l#l#l#l#w#w#w#w#w#wbP#Ebh.#.#.#.#.#",
".a.a.a.a.a.a.a.a.a.a.a.a.a.a.a.#bO.N#l#l#l#l#l#w#l#l#l#l#l#l#l#l#l#l#l#l#l#l#l#l#l#l#l#l#l#l#l#l#l#l#w#w#w#w#w#wbP#Ebh.#.#.#.#.#",
".a.a.a.a.a.a.a.a.a.a.a.a.a.a.a.#bO.O#l#l#l#l#l#w#l#l#l#l#l#l#l#l#l#l#l#l#l#l#l#l#l#l#l#l#l#l#l#lbS#l#w#w#w#w#w#wbP#Ebh.#.#.#.#.#",
".a.a.a.a.a.a.a.a.a.a.a.a.a.a.a.#bO.Q#l#l#l#l#l#w#l#l#l#l#l#l#l#l#l#l#l#l#l#l#l#l#l#l#l#l#l#l#l#l#l#l#w#w#w#w#w#wbP#Ebh.#.#.#.#.#",
".a.a.a.a.a.a.a.a.a.a.a.a.a.a.a.#bObT#l#l#l#l#l#w#l#l#l#l#l#l#l#l#l#l#l#l#l#l#l#l#l#l#l#l#l#l#l#lbSbS#w#w#w#w#w#wbP#Ebh.#.#.#.#.#",
".a.a.a.a.a.a.a.a.a.a.a.a.a.a.a.#bObT#l#l#l#l#l#w#l#l#l#l#l#l#l#l#l#l#l#l#l#l#l#l#l#l#l#l#l#l#l#l#l#l#w#w#w#w#w#wbP#Ebh.#.#.#.#.#",
".a.a.a.a.a.a.a.a.a.a.a.a.a.a.a.#bObT#l#l#l#l#l#w#l#l#l#l#l#l#l#l#l#l#l#l#l#l#l#l#l#l#l#l#l#l#l#lbS#l#w#w#w#w#w#wbP#Ebh.#.#.#.#.#",
".a.a.a.a.a.a.a.a.a.a.a.a.a.a.a.#bObU#l#l#l#l#l#w#l#l#l#l#l#l#l#l#l#l#l#l#l#l#l#l#l#l#l#l#l#l#l#l#l#l#w#w#w#w#w#wbP#Ebh.#.#.#.#.#",
".a.a.a.a.a.a.a.a.a.a.a.a.a.a.a.#bObV#l#l#l#l#l#w#l#l#l#lbW#lbX#l#l#l#l#l#l#l#l#l#l#l#l#l#l#l#l#l#l#l#w#w#w#w#w#wbP#Ebh.#.#.#.#.#",
".a.a.a.a.a.a.a.a.a.a.a.a.a.a.a.#bYbZ#l#lbM#l#l#w#l#l#l#l#l#l#l#l#l#l#l#l#l#l#l#l#l#l#l#l#lbS#l#l#l#l#w#w#w#w#w#wbP#Ebh.#.#.#.#.#",
".a.a.a.a.a.a.a.a.a.a.a.a.a.a.a.#b0b1#l#l#lbMb.#wb.b.#l#l#l#l#l#l#l#l#l#l#l#l#l#l#l#l#l#l#l#l#l#l#l#l#w#w#w#w#w#wbP#Ebh.#.#.#.#.#",
".a.a.a.a.a.a.a.a.a.a.a.a.a.a.a.#b2b1#l#l#l#w#wb.#w#wb.#l#l#l#l#l#l#l#l#l#l#l#l#l#l#l#l#l#l#l#l#l#l#l#w#w#wb.#w#wbP#Ebh.#.#.#.#.#",
".a.a.a.a.a.a.a.a.a.a.a.a.a.a.a.#b2b3#l#l#w#w#wb.#w#w#wb.#l#l#l#l#l#l#l#l#l#l#l#l#l#l#l#l#l#lb4#l#l#l#w#w#wb.#w#wbP#Ebh.#.#.#.#.#",
".a.a.a.a.a.a.a.a.a.a.a.a.a.a.a.#b2bT#l#w#wb.b.b.b.b.#w#wb.#l#l#l#l#l#l#l#l#l#l#l#l#lbS#l#l#l#l#l#l#l#wb.b.b.b.b.bPb.bh.#.#.#.#.#",
".a.a.a.a.a.a.a.a.a.a.a.a.a.a.a.#b2b5#w#w#w#w#wb.#w#w#w#w#wb.#l#l#l#l#l#l#l#l#l#l#l#l#l#l#l#l#l#l#l#l#w#w#wb.#w#wb.b6bh.#.#.#.#.#",
".a.a.a.a.a.a.a.a.a.a.a.a.a.a.a.#b2#w#w#w#w#w#wb.#w#w#w#w#wb.#l#l#l#l#l#l#l#l#l#l#l#l#l#l#l#l#l#l#l#l#w#w#wb.#wb.b7b8bh.#.#.#.#.#",
".a.a.a.a.a.a.a.a.a.a.a.a.a.a.a.#b2#w#w#w#w#w#w#w#w#w#w#w#wb.#l#l#l#l#l#l#l#l#l#l#w#w#w#w#w#w#w#w#w#w#w#w#w#wb.b9b7b8bh.#.#.#.#.#",
"c.c.c.c.c.c.c.c.c.c.c..a.a.a.a.#b2#w#w#w#w#w#w#w#w#w#w#w#wb.#l#l#l#l#l#l#l#l#l#l#w#l#l#l#l#l#l#l#l#l#w#w#wb.b4c#cacbbh.#.#.#.#.#",
".ac.c.c.c.c.c.c.c..a.a.a.a.a.a.#cc#w#w#w#w#w#w#w#w#w#w#w#wb.#l#l#l#l#l#l#l#l#l#l#w#l#l#l#l#l#l#l#l#l#w#wb.#lb4cdcecfbh.#.#.#.#.#",
".a.a.a.a.a.a.a.a.a.a.a.a.a.a.a.#b2#w#w#w#w#w#w#w#w#w#w#w#wb.cgch#l#l#l#l#l#l#l#l#w#l#l#l#l#l#l#l#l#l#wb.#l#lb4cicjckbh.#.#.#.#.#",
".a.a.a.a.a.a.a.a.a.a.ac..a.a.a.#clcm#w#w#w#w#w#w#w#w#w#w#wb.#l#lcnbS#l#l#l#l#l#l#w#l#l#l#l#l#l#l#l#l#l#l#l#lb4cocpcqbh.#.#.#.#.#",
".a.a.a.a.a.a.a.a.a.a.a.a.a.a.a.#crcs#l#w#wb.b.b.b.b.#w#wb.#l#l#l#l#l#l#l#l#l#l#l#w#l#l#l#l#l#l#l#l#l#l#l#l#lb4ctcucqbh.#.#.#.#.#",
".a.a.a.a.a.a.a.a.a.a.a.a.a.a.a.#cvcw#l#l#w#w#w#w#w#w#wb.#l#l#l#l#l#l#l#l#l#l#l#l#w#l#l#l#l#l#l#l#l#l#l#l#l#lb4cxcucybh.#.#.#.#.#",
".a.a.a.a.a.a.a.a.a.a.a.a.a.a.a.#czcA#l#l#l#w#w#w#w#wb.#l#l#l#l#l#l#l#l#l#l#l#l#l#w#l#l#l#l#l#l#l#l#l#l#l#l#lb4cxcucBbh.#.#.#.#.#",
".a.ac.c.c.c.c.c..a.a.a.acCcC.a.#cDcE#l#l#l#lbW#w#lcg#l#l#l#l#l#l#l#l#l#l#l#l#l#lcC#l#l#l#l#lcCcC#l#l#l#l#l#lb4cxcucBbh.#.#.#.#.#",
".ac.c.cCcCcCcCcCc..a.ac..a.a.a.#cFcG#l#l#lbW#l#w#l#l#l#lcH#l#l#l#l#l#l#l#l#l#l#l#w#l#l#l#l#lcCcC#l#l#l#l#l#lb4cxcxcBbh.#.#.#.#.#",
"c.c.cCcCcCcCcCcCcCc..ac.cCcC.acCcCcIcCcCcC#l#l#w#lcCcCcC#l#l#lcCcC#l#l#lcCcC#l#lcCcC#l#lcCcCcCcCcCcC#l#l#lb4b4cxcxcJbh.#.#.#.#.#",
"c.cCcC.a.a.a.acCcC.a.ac.cCcCc..#cCcCcCcCcCcKcL#wcCcCcCcCcCcKcKcCcCcMcKcKcCcCcNcOcCcCcPb9cQcRcCcCcicuctcxcxcxcxcxcucJbh.#.#.#.#.#",
"c.cCcC.a.a.a.a.a.a.a.ac.cCcC.a.#cCcC#lcScTcTcUcCcCcTcTcCcCcVcWcCcCcXcYcZcCcCc0c1cCcCc2c3c4b7cCcCcjcucucucucucxcucucJbh.#.#.#.#.#",
"c.cCcC.a.a.a.a.a.a.a.ac.cCcC.a.#cCcCcwcwc5c5c5cCcCc5c6c7c8c9d.cCcCd#dadbcCcCdcddcCcCdedfdgb8cCcCckcqcqcqcBcBcJcJdhdibh.#.#.#.#.#",
"c.cCcC.a.a.a.a.a.a.a.ac.cCcC.a.#cCcCbhbhbhbhdjcCcCbhbhbhbhbhbhcCcCbhbhbhcCcCbhbhcCcCbhbhbhbhcCcCbhbhbhbhbhbhbhbhbhbhbh.#.#.#.#.#",
"c.cCcC.a.a.a.a.acCcC.ac.cCcC.a.#cCcC.#.#.#.#.#cCcC.#.#.#.#.#.#cCcC.#.#.#cCcC.#.#cCcC.#.#.#.#cCcC.#.#.#.#.#.#.#.#.#.#.#.#.#.#.#.#",
"c.c.cCcC.a.a.acCcCc..ac.cCcC.a.#cCcC.#.#.#.#.#cCcC.#.#cCcC.#.#cCcC.#.#.#cCcC.#.#cCcC.#.#.#.#cCcC.#.#.#.#.#.#.#.#.#.#.#.#.#.#.#.#",
".ac.c.cCcCcCcCcCc..a.a.ac.cCcC.#cCcC.#.#.#.#.#.#cCcCcCcCcC.#.#.#cCcCcCcCcC.#.#.#.#cCcC.#.#.#.#cCcC.#.#.#.#.#.#.#.#.#.#.#.#.#.#.#",
".a.ac.c.cCcCcCc..a.a.a.a.acCcC.#cCcCcC.#.#.#.#.#.#cCcCcC.#.#.#.#.#cCcCcC.#.#.#.#.#cCcC.#.#.#.#cCcC.#.#.#.#.#.#.#.#.#.#.#.#.#.#.#",
".a.a.ac.c.c..a.a.a.a.a.a.a.ac..#.#.#.#.#.#.#.#.#.#.#.#.#.#.#.#.#.#.#.#.#.#.#.#.#.#.#.#.#.#.#.#.#.#.#.#.#.#.#.#.#.#.#.#.#.#.#.#.#"};
