<?xml version="1.0" encoding="UTF-8" standalone="no"?>
<!DOCTYPE svg PUBLIC "-//W3C//DTD SVG 1.1//EN"
 "http://www.w3.org/Graphics/SVG/1.1/DTD/svg11.dtd">
<!-- Generated by graphviz version 2.44.0 (0)
 -->
<!-- Title: block Pages: 1 -->
<svg width="791pt" height="391pt"
 viewBox="0.00 0.00 791.00 391.00" xmlns="http://www.w3.org/2000/svg" xmlns:xlink="http://www.w3.org/1999/xlink">
<g id="graph0" class="graph" transform="scale(1 1) rotate(0) translate(4 387)">
<title>block</title>
<polygon fill="white" stroke="transparent" points="-4,4 -4,-387 787,-387 787,4 -4,4"/>
<g id="clust1" class="cluster">
<title>cluster_(((0,), 1), ((4,), 1))</title>
<polygon fill="none" stroke="#18f01b" points="-0.38,-81.1 -0.38,-383.1 193.62,-383.1 193.62,-81.1 -0.38,-81.1"/>
<text text-anchor="middle" x="96.62" y="-367.9" font-family="Times-Roman" font-size="14.00">cluster_(((0,), 1), ((4,), 1))</text>
<text text-anchor="middle" x="96.62" y="-352.9" font-family="Times-Roman" font-size="14.00">best_cut=12</text>
</g>
<g id="clust2" class="cluster">
<title>cluster_(0,)</title>
<polygon fill="none" stroke="#ac2038" points="16.81,-210.77 16.81,-336.77 176.81,-336.77 176.81,-210.77 16.81,-210.77"/>
<text text-anchor="middle" x="96.81" y="-321.57" font-family="Times-Roman" font-size="14.00">cluster_(0,)</text>
<text text-anchor="middle" x="96.81" y="-306.57" font-family="Times-Roman" font-size="14.00">best_cut=4</text>
</g>
<g id="clust3" class="cluster">
<title>cluster_(4,)</title>
<polygon fill="none" stroke="#e53d99" points="37.37,-88.91 37.37,-195.91 149.37,-195.91 149.37,-88.91 37.37,-88.91"/>
<text text-anchor="middle" x="93.37" y="-180.71" font-family="Times-Roman" font-size="14.00">cluster_(4,)</text>
<text text-anchor="middle" x="93.37" y="-165.71" font-family="Times-Roman" font-size="14.00">best_cut=4</text>
</g>
<g id="clust4" class="cluster">
<title>cluster_(((((1,), 1), ((2,), 1)), 3), ((((3,), 1), ((5,), 1)), 3))</title>
<polygon fill="none" stroke="#c9e358" points="204.15,0.22 204.15,-345.78 783.15,-345.78 783.15,0.22 204.15,0.22"/>
<text text-anchor="middle" x="493.65" y="-330.58" font-family="Times-Roman" font-size="14.00">cluster_(((((1,), 1), ((2,), 1)), 3), ((((3,), 1), ((5,), 1)), 3))</text>
<text text-anchor="middle" x="493.65" y="-315.58" font-family="Times-Roman" font-size="14.00">best_cut=12</text>
</g>
<g id="clust5" class="cluster">
<title>cluster_(((1,), 1), ((2,), 1))</title>
<polygon fill="none" stroke="#de4db9" points="212.19,-7.45 212.19,-299.45 461.19,-299.45 461.19,-7.45 212.19,-7.45"/>
<text text-anchor="middle" x="336.69" y="-284.25" font-family="Times-Roman" font-size="14.00">cluster_(((1,), 1), ((2,), 1))</text>
<text text-anchor="middle" x="336.69" y="-269.25" font-family="Times-Roman" font-size="14.00">best_cut=5</text>
</g>
<g id="clust6" class="cluster">
<title>cluster_(1,)</title>
<polygon fill="none" stroke="#7a2b37" points="341.25,-127.34 341.25,-253.34 453.25,-253.34 453.25,-127.34 341.25,-127.34"/>
<text text-anchor="middle" x="397.25" y="-238.14" font-family="Times-Roman" font-size="14.00">cluster_(1,)</text>
<text text-anchor="middle" x="397.25" y="-223.14" font-family="Times-Roman" font-size="14.00">best_cut=3</text>
</g>
<g id="clust7" class="cluster">
<title>cluster_(2,)</title>
<polygon fill="none" stroke="#5173ea" points="220.16,-15.11 220.16,-213.11 332.16,-213.11 332.16,-15.11 220.16,-15.11"/>
<text text-anchor="middle" x="276.16" y="-197.91" font-family="Times-Roman" font-size="14.00">cluster_(2,)</text>
<text text-anchor="middle" x="276.16" y="-182.91" font-family="Times-Roman" font-size="14.00">best_cut=3</text>
</g>
<g id="clust8" class="cluster">
<title>cluster_(((3,), 1), ((5,), 1))</title>
<polygon fill="none" stroke="#e4f226" points="471.7,-22.86 471.7,-280.86 774.7,-280.86 774.7,-22.86 471.7,-22.86"/>
<text text-anchor="middle" x="623.2" y="-265.66" font-family="Times-Roman" font-size="14.00">cluster_(((3,), 1), ((5,), 1))</text>
<text text-anchor="middle" x="623.2" y="-250.66" font-family="Times-Roman" font-size="14.00">best_cut=5</text>
</g>
<g id="clust9" class="cluster">
<title>cluster_(3,)</title>
<polygon fill="none" stroke="#8ba0a3" points="480,-127.54 480,-234.54 640,-234.54 640,-127.54 480,-127.54"/>
<text text-anchor="middle" x="560" y="-219.34" font-family="Times-Roman" font-size="14.00">cluster_(3,)</text>
<text text-anchor="middle" x="560" y="-204.34" font-family="Times-Roman" font-size="14.00">best_cut=3</text>
</g>
<g id="clust10" class="cluster">
<title>cluster_(5,)</title>
<polygon fill="none" stroke="#7cb4cc" points="654.39,-30.7 654.39,-137.7 766.39,-137.7 766.39,-30.7 654.39,-30.7"/>
<text text-anchor="middle" x="710.39" y="-122.5" font-family="Times-Roman" font-size="14.00">cluster_(5,)</text>
<text text-anchor="middle" x="710.39" y="-107.5" font-family="Times-Roman" font-size="14.00">best_cut=3</text>
</g>
<!-- 0 -->
<g id="node1" class="node">
<title>0</title>
<polygon fill="none" stroke="#d7c16b" points="168.62,-290.45 24.62,-290.45 24.62,-218.45 168.62,-218.45 168.62,-290.45"/>
<text text-anchor="middle" x="96.62" y="-265.75" font-family="Times-Roman" font-size="14.00">0</text>
<text text-anchor="middle" x="96.62" y="-250.75" font-family="Times-Roman" font-size="14.00">10x5</text>
<text text-anchor="middle" x="96.62" y="-235.75" font-family="Times-Roman" font-size="14.00">best_cut=1</text>
</g>
<!-- 4 -->
<g id="node2" class="node">
<title>4</title>
<polygon fill="none" stroke="#3c1a65" points="141.14,-149.99 45.14,-149.99 45.14,-96.99 141.14,-96.99 141.14,-149.99"/>
<text text-anchor="middle" x="93.14" y="-134.79" font-family="Times-Roman" font-size="14.00">4</text>
<text text-anchor="middle" x="93.14" y="-119.79" font-family="Times-Roman" font-size="14.00">8x4</text>
<text text-anchor="middle" x="93.14" y="-104.79" font-family="Times-Roman" font-size="14.00">best_cut=1</text>
</g>
<!-- 0&#45;&#45;4 -->
<g id="edge4" class="edge">
<title>0&#45;&#45;4</title>
<path fill="none" stroke="black" d="M95.66,-218.32C95.09,-196.81 94.37,-169.99 93.85,-150.36"/>
<text text-anchor="middle" x="89.75" y="-188.14" font-family="Times-Roman" font-size="14.00">4</text>
</g>
<!-- 1 -->
<g id="node3" class="node">
<title>1</title>
<polygon fill="none" stroke="#22d8c3" points="445.14,-207.16 349.14,-207.16 349.14,-135.16 445.14,-135.16 445.14,-207.16"/>
<text text-anchor="middle" x="397.14" y="-182.46" font-family="Times-Roman" font-size="14.00">1</text>
<text text-anchor="middle" x="397.14" y="-167.46" font-family="Times-Roman" font-size="14.00">8x6</text>
<text text-anchor="middle" x="397.14" y="-152.46" font-family="Times-Roman" font-size="14.00">best_cut=1</text>
</g>
<!-- 0&#45;&#45;1 -->
<g id="edge1" class="edge">
<title>0&#45;&#45;1</title>
<path fill="none" stroke="black" d="M168.98,-234.39C224.74,-218.94 300.26,-198.01 348.85,-184.54"/>
<text text-anchor="middle" x="253.92" y="-213.27" font-family="Times-Roman" font-size="14.00">1</text>
</g>
<!-- 2 -->
<g id="node4" class="node">
<title>2</title>
<polygon fill="none" stroke="#f4f20e" points="324.46,-167.11 228.46,-167.11 228.46,-23.11 324.46,-23.11 324.46,-167.11"/>
<text text-anchor="middle" x="276.46" y="-106.41" font-family="Times-Roman" font-size="14.00">2</text>
<text text-anchor="middle" x="276.46" y="-91.41" font-family="Times-Roman" font-size="14.00">4x13</text>
<text text-anchor="middle" x="276.46" y="-76.41" font-family="Times-Roman" font-size="14.00">best_cut=1</text>
</g>
<!-- 0&#45;&#45;2 -->
<g id="edge2" class="edge">
<title>0&#45;&#45;2</title>
<path fill="none" stroke="black" d="M137.43,-218.29C164.37,-194.42 199.8,-163.02 228.16,-137.91"/>
<text text-anchor="middle" x="177.79" y="-181.9" font-family="Times-Roman" font-size="14.00">3</text>
</g>
<!-- 3 -->
<g id="node5" class="node">
<title>3</title>
<polygon fill="none" stroke="#3d8b5e" points="631.91,-188.71 487.91,-188.71 487.91,-135.71 631.91,-135.71 631.91,-188.71"/>
<text text-anchor="middle" x="559.91" y="-173.51" font-family="Times-Roman" font-size="14.00">3</text>
<text text-anchor="middle" x="559.91" y="-158.51" font-family="Times-Roman" font-size="14.00">10x3</text>
<text text-anchor="middle" x="559.91" y="-143.51" font-family="Times-Roman" font-size="14.00">best_cut=1</text>
</g>
<!-- 0&#45;&#45;3 -->
<g id="edge3" class="edge">
<title>0&#45;&#45;3</title>
<path fill="none" stroke="black" d="M168.75,-240.09C255.6,-222.8 400.61,-193.93 487.56,-176.62"/>
<text text-anchor="middle" x="323.16" y="-212.15" font-family="Times-Roman" font-size="14.00">2</text>
</g>
<!-- 5 -->
<g id="node6" class="node">
<title>5</title>
<polygon fill="none" stroke="#9fbdcb" points="758.13,-91.45 662.13,-91.45 662.13,-38.45 758.13,-38.45 758.13,-91.45"/>
<text text-anchor="middle" x="710.13" y="-76.25" font-family="Times-Roman" font-size="14.00">5</text>
<text text-anchor="middle" x="710.13" y="-61.25" font-family="Times-Roman" font-size="14.00">4x1</text>
<text text-anchor="middle" x="710.13" y="-46.25" font-family="Times-Roman" font-size="14.00">best_cut=1</text>
</g>
<!-- 0&#45;&#45;5 -->
<g id="edge5" class="edge">
<title>0&#45;&#45;5</title>
<path fill="none" stroke="black" d="M168.8,-232.15C295.5,-193.02 554.63,-112.98 661.94,-79.83"/>
<text text-anchor="middle" x="410.37" y="-159.79" font-family="Times-Roman" font-size="14.00">2</text>
</g>
<!-- 4&#45;&#45;5 -->
<g id="edge15" class="edge">
<title>4&#45;&#45;5</title>
<path fill="none" stroke="black" d="M141.29,-118.92C256.44,-108 546.66,-80.46 661.89,-69.53"/>
<text text-anchor="middle" x="396.59" y="-98.02" font-family="Times-Roman" font-size="14.00">1</text>
</g>
<!-- 1&#45;&#45;4 -->
<g id="edge8" class="edge">
<title>1&#45;&#45;4</title>
<path fill="none" stroke="black" d="M348.97,-163.61C292.13,-154.69 198.18,-139.96 141.33,-131.05"/>
<text text-anchor="middle" x="240.15" y="-151.13" font-family="Times-Roman" font-size="14.00">2</text>
</g>
<!-- 1&#45;&#45;2 -->
<g id="edge6" class="edge">
<title>1&#45;&#45;2</title>
<path fill="none" stroke="black" d="M349.1,-140.88C341.08,-135.83 332.76,-130.59 324.73,-125.53"/>
<text text-anchor="middle" x="331.92" y="-137.01" font-family="Times-Roman" font-size="14.00">3</text>
</g>
<!-- 1&#45;&#45;3 -->
<g id="edge7" class="edge">
<title>1&#45;&#45;3</title>
<path fill="none" stroke="black" d="M445.54,-168.5C458.84,-167.77 473.57,-166.96 487.9,-166.17"/>
<text text-anchor="middle" x="461.72" y="-171.14" font-family="Times-Roman" font-size="14.00">1</text>
</g>
<!-- 1&#45;&#45;5 -->
<g id="edge9" class="edge">
<title>1&#45;&#45;5</title>
<path fill="none" stroke="black" d="M445.36,-154.8C504.26,-134.81 603.3,-101.2 662.11,-81.24"/>
<text text-anchor="middle" x="548.74" y="-121.82" font-family="Times-Roman" font-size="14.00">1</text>
</g>
<!-- 2&#45;&#45;4 -->
<g id="edge11" class="edge">
<title>2&#45;&#45;4</title>
<path fill="none" stroke="black" d="M228.29,-102.56C201.45,-106.72 168.14,-111.88 141.3,-116.03"/>
<text text-anchor="middle" x="179.8" y="-113.1" font-family="Times-Roman" font-size="14.00">1</text>
</g>
<!-- 2&#45;&#45;3 -->
<g id="edge10" class="edge">
<title>2&#45;&#45;3</title>
<path fill="none" stroke="black" d="M324.54,-106.49C369.32,-117.09 436.67,-133.04 487.87,-145.16"/>
<text text-anchor="middle" x="401.21" y="-114.63" font-family="Times-Roman" font-size="14.00">1</text>
</g>
<!-- 2&#45;&#45;5 -->
<g id="edge12" class="edge">
<title>2&#45;&#45;5</title>
<path fill="none" stroke="black" d="M324.53,-91.76C407.89,-85.97 578.34,-74.11 661.85,-68.31"/>
<text text-anchor="middle" x="488.19" y="-83.84" font-family="Times-Roman" font-size="14.00">2</text>
</g>
<!-- 3&#45;&#45;4 -->
<g id="edge13" class="edge">
<title>3&#45;&#45;4</title>
<path fill="none" stroke="black" d="M487.74,-156.23C391.39,-148.23 223.37,-134.29 141.18,-127.48"/>
<text text-anchor="middle" x="309.46" y="-145.65" font-family="Times-Roman" font-size="14.00">2</text>
</g>
<!-- 3&#45;&#45;5 -->
<g id="edge14" class="edge">
<title>3&#45;&#45;5</title>
<path fill="none" stroke="black" d="M600.95,-135.64C622.15,-121.91 647.94,-105.21 669.13,-91.49"/>
<text text-anchor="middle" x="630.04" y="-117.37" font-family="Times-Roman" font-size="14.00">3</text>
</g>
</g>
</svg>
